<?xml version="1.0" encoding="UTF-8"?>
<svg xmlns="http://www.w3.org/2000/svg" xmlns:xlink="http://www.w3.org/1999/xlink" width="280pt" height="333.41978pt" viewBox="0 0 280 333.41978" version="1.1">
<g id="surface3154">
<path style=" stroke:none;fill-rule:nonzero;fill:rgb(100%,0%,0%);fill-opacity:1;" d="M 35 60.621094 L 65 60.621094 L 50 34.640625 "/>
<path style=" stroke:none;fill-rule:nonzero;fill:rgb(50%,0%,0%);fill-opacity:1;" d="M 35 60.621094 L 50 34.640625 L 20 34.640625 "/>
<path style=" stroke:none;fill-rule:nonzero;fill:rgb(33.333333%,0%,0%);fill-opacity:1;" d="M 35 60.621094 L 20 34.640625 L 5 60.621094 "/>
<path style=" stroke:none;fill-rule:nonzero;fill:rgb(25%,0%,0%);fill-opacity:1;" d="M 35 60.621094 L 5 60.621094 L 20 86.601563 "/>
<path style=" stroke:none;fill-rule:nonzero;fill:rgb(20%,0%,0%);fill-opacity:1;" d="M 35 60.621094 L 20 86.601563 L 50 86.601563 "/>
<path style=" stroke:none;fill-rule:nonzero;fill:rgb(16.666667%,0%,0%);fill-opacity:1;" d="M 35 60.621094 L 50 86.601563 L 65 60.621094 "/>
<path style=" stroke:none;fill-rule:nonzero;fill:rgb(100%,23.529412%,0%);fill-opacity:1;" d="M 87.5 30.3125 L 117.5 30.3125 L 102.5 4.332031 "/>
<path style=" stroke:none;fill-rule:nonzero;fill:rgb(50%,11.764706%,0%);fill-opacity:1;" d="M 87.5 30.3125 L 102.5 4.332031 L 72.5 4.332031 "/>
<path style=" stroke:none;fill-rule:nonzero;fill:rgb(33.333333%,7.843137%,0%);fill-opacity:1;" d="M 87.5 30.3125 L 72.5 4.332031 L 57.5 30.3125 "/>
<path style=" stroke:none;fill-rule:nonzero;fill:rgb(25%,5.882353%,0%);fill-opacity:1;" d="M 87.5 30.3125 L 57.5 30.3125 L 72.5 56.292969 "/>
<path style=" stroke:none;fill-rule:nonzero;fill:rgb(20%,4.705882%,0%);fill-opacity:1;" d="M 87.5 30.3125 L 72.5 56.292969 L 102.5 56.292969 "/>
<path style=" stroke:none;fill-rule:nonzero;fill:rgb(16.666667%,3.921569%,0%);fill-opacity:1;" d="M 87.5 30.3125 L 102.5 56.292969 L 117.5 30.3125 "/>
<path style=" stroke:none;fill-rule:nonzero;fill:rgb(100%,47.058824%,0%);fill-opacity:1;" d="M 140 60.621094 L 170 60.621094 L 155 34.640625 "/>
<path style=" stroke:none;fill-rule:nonzero;fill:rgb(50%,23.529412%,0%);fill-opacity:1;" d="M 140 60.621094 L 155 34.640625 L 125 34.640625 "/>
<path style=" stroke:none;fill-rule:nonzero;fill:rgb(33.333333%,15.686275%,0%);fill-opacity:1;" d="M 140 60.621094 L 125 34.640625 L 110 60.621094 "/>
<path style=" stroke:none;fill-rule:nonzero;fill:rgb(25%,11.764706%,0%);fill-opacity:1;" d="M 140 60.621094 L 110 60.621094 L 125 86.601563 "/>
<path style=" stroke:none;fill-rule:nonzero;fill:rgb(20%,9.411765%,0%);fill-opacity:1;" d="M 140 60.621094 L 125 86.601563 L 155 86.601563 "/>
<path style=" stroke:none;fill-rule:nonzero;fill:rgb(16.666667%,7.843137%,0%);fill-opacity:1;" d="M 140 60.621094 L 155 86.601563 L 170 60.621094 "/>
<path style=" stroke:none;fill-rule:nonzero;fill:rgb(100%,70.588235%,0%);fill-opacity:1;" d="M 192.5 30.3125 L 222.5 30.3125 L 207.5 4.332031 "/>
<path style=" stroke:none;fill-rule:nonzero;fill:rgb(50%,35.294118%,0%);fill-opacity:1;" d="M 192.5 30.3125 L 207.5 4.332031 L 177.5 4.332031 "/>
<path style=" stroke:none;fill-rule:nonzero;fill:rgb(33.333333%,23.529412%,0%);fill-opacity:1;" d="M 192.5 30.3125 L 177.5 4.332031 L 162.5 30.3125 "/>
<path style=" stroke:none;fill-rule:nonzero;fill:rgb(25%,17.647059%,0%);fill-opacity:1;" d="M 192.5 30.3125 L 162.5 30.3125 L 177.5 56.292969 "/>
<path style=" stroke:none;fill-rule:nonzero;fill:rgb(20%,14.117647%,0%);fill-opacity:1;" d="M 192.5 30.3125 L 177.5 56.292969 L 207.5 56.292969 "/>
<path style=" stroke:none;fill-rule:nonzero;fill:rgb(16.666667%,11.764706%,0%);fill-opacity:1;" d="M 192.5 30.3125 L 207.5 56.292969 L 222.5 30.3125 "/>
<path style=" stroke:none;fill-rule:nonzero;fill:rgb(99.607843%,94.117647%,0%);fill-opacity:1;" d="M 245 60.621094 L 275 60.621094 L 260 34.640625 "/>
<path style=" stroke:none;fill-rule:nonzero;fill:rgb(49.803922%,47.058824%,0%);fill-opacity:1;" d="M 245 60.621094 L 260 34.640625 L 230 34.640625 "/>
<path style=" stroke:none;fill-rule:nonzero;fill:rgb(33.202614%,31.372549%,0%);fill-opacity:1;" d="M 245 60.621094 L 230 34.640625 L 215 60.621094 "/>
<path style=" stroke:none;fill-rule:nonzero;fill:rgb(24.901961%,23.529412%,0%);fill-opacity:1;" d="M 245 60.621094 L 215 60.621094 L 230 86.601563 "/>
<path style=" stroke:none;fill-rule:nonzero;fill:rgb(19.921569%,18.823529%,0%);fill-opacity:1;" d="M 245 60.621094 L 230 86.601563 L 260 86.601563 "/>
<path style=" stroke:none;fill-rule:nonzero;fill:rgb(16.601307%,15.686275%,0%);fill-opacity:1;" d="M 245 60.621094 L 260 86.601563 L 275 60.621094 "/>
<path style=" stroke:none;fill-rule:nonzero;fill:rgb(81.568627%,100%,0%);fill-opacity:1;" d="M 35 121.242188 L 65 121.242188 L 50 95.261719 "/>
<path style=" stroke:none;fill-rule:nonzero;fill:rgb(40.784314%,50%,0%);fill-opacity:1;" d="M 35 121.242188 L 50 95.261719 L 20 95.261719 "/>
<path style=" stroke:none;fill-rule:nonzero;fill:rgb(27.189542%,33.333333%,0%);fill-opacity:1;" d="M 35 121.242188 L 20 95.261719 L 5 121.242188 "/>
<path style=" stroke:none;fill-rule:nonzero;fill:rgb(20.392157%,25%,0%);fill-opacity:1;" d="M 35 121.242188 L 5 121.242188 L 20 147.222656 "/>
<path style=" stroke:none;fill-rule:nonzero;fill:rgb(16.313725%,20%,0%);fill-opacity:1;" d="M 35 121.242188 L 20 147.222656 L 50 147.222656 "/>
<path style=" stroke:none;fill-rule:nonzero;fill:rgb(13.594771%,16.666667%,0%);fill-opacity:1;" d="M 35 121.242188 L 50 147.222656 L 65 121.242188 "/>
<path style=" stroke:none;fill-rule:nonzero;fill:rgb(58.039216%,100%,0%);fill-opacity:1;" d="M 87.5 90.933594 L 117.5 90.933594 L 102.5 64.953125 "/>
<path style=" stroke:none;fill-rule:nonzero;fill:rgb(29.019608%,50%,0%);fill-opacity:1;" d="M 87.5 90.933594 L 102.5 64.953125 L 72.5 64.953125 "/>
<path style=" stroke:none;fill-rule:nonzero;fill:rgb(19.346405%,33.333333%,0%);fill-opacity:1;" d="M 87.5 90.933594 L 72.5 64.953125 L 57.5 90.933594 "/>
<path style=" stroke:none;fill-rule:nonzero;fill:rgb(14.509804%,25%,0%);fill-opacity:1;" d="M 87.5 90.933594 L 57.5 90.933594 L 72.5 116.914063 "/>
<path style=" stroke:none;fill-rule:nonzero;fill:rgb(11.607843%,20%,0%);fill-opacity:1;" d="M 87.5 90.933594 L 72.5 116.914063 L 102.5 116.914063 "/>
<path style=" stroke:none;fill-rule:nonzero;fill:rgb(9.673203%,16.666667%,0%);fill-opacity:1;" d="M 87.5 90.933594 L 102.5 116.914063 L 117.5 90.933594 "/>
<path style=" stroke:none;fill-rule:nonzero;fill:rgb(34.509804%,100%,0%);fill-opacity:1;" d="M 140 121.242188 L 170 121.242188 L 155 95.261719 "/>
<path style=" stroke:none;fill-rule:nonzero;fill:rgb(17.254902%,50%,0%);fill-opacity:1;" d="M 140 121.242188 L 155 95.261719 L 125 95.261719 "/>
<path style=" stroke:none;fill-rule:nonzero;fill:rgb(11.503268%,33.333333%,0%);fill-opacity:1;" d="M 140 121.242188 L 125 95.261719 L 110 121.242188 "/>
<path style=" stroke:none;fill-rule:nonzero;fill:rgb(8.627451%,25%,0%);fill-opacity:1;" d="M 140 121.242188 L 110 121.242188 L 125 147.222656 "/>
<path style=" stroke:none;fill-rule:nonzero;fill:rgb(6.901961%,20%,0%);fill-opacity:1;" d="M 140 121.242188 L 125 147.222656 L 155 147.222656 "/>
<path style=" stroke:none;fill-rule:nonzero;fill:rgb(5.751634%,16.666667%,0%);fill-opacity:1;" d="M 140 121.242188 L 155 147.222656 L 170 121.242188 "/>
<path style=" stroke:none;fill-rule:nonzero;fill:rgb(10.980392%,100%,0%);fill-opacity:1;" d="M 192.5 90.933594 L 222.5 90.933594 L 207.5 64.953125 "/>
<path style=" stroke:none;fill-rule:nonzero;fill:rgb(5.490196%,50%,0%);fill-opacity:1;" d="M 192.5 90.933594 L 207.5 64.953125 L 177.5 64.953125 "/>
<path style=" stroke:none;fill-rule:nonzero;fill:rgb(3.660131%,33.333333%,0%);fill-opacity:1;" d="M 192.5 90.933594 L 177.5 64.953125 L 162.5 90.933594 "/>
<path style=" stroke:none;fill-rule:nonzero;fill:rgb(2.745098%,25%,0%);fill-opacity:1;" d="M 192.5 90.933594 L 162.5 90.933594 L 177.5 116.914063 "/>
<path style=" stroke:none;fill-rule:nonzero;fill:rgb(2.196078%,20%,0%);fill-opacity:1;" d="M 192.5 90.933594 L 177.5 116.914063 L 207.5 116.914063 "/>
<path style=" stroke:none;fill-rule:nonzero;fill:rgb(1.830065%,16.666667%,0%);fill-opacity:1;" d="M 192.5 90.933594 L 207.5 116.914063 L 222.5 90.933594 "/>
<path style=" stroke:none;fill-rule:nonzero;fill:rgb(0%,100%,12.54902%);fill-opacity:1;" d="M 245 121.242188 L 275 121.242188 L 260 95.261719 "/>
<path style=" stroke:none;fill-rule:nonzero;fill:rgb(0%,50%,6.27451%);fill-opacity:1;" d="M 245 121.242188 L 260 95.261719 L 230 95.261719 "/>
<path style=" stroke:none;fill-rule:nonzero;fill:rgb(0%,33.333333%,4.183007%);fill-opacity:1;" d="M 245 121.242188 L 230 95.261719 L 215 121.242188 "/>
<path style=" stroke:none;fill-rule:nonzero;fill:rgb(0%,25%,3.137255%);fill-opacity:1;" d="M 245 121.242188 L 215 121.242188 L 230 147.222656 "/>
<path style=" stroke:none;fill-rule:nonzero;fill:rgb(0%,20%,2.509804%);fill-opacity:1;" d="M 245 121.242188 L 230 147.222656 L 260 147.222656 "/>
<path style=" stroke:none;fill-rule:nonzero;fill:rgb(0%,16.666667%,2.091503%);fill-opacity:1;" d="M 245 121.242188 L 260 147.222656 L 275 121.242188 "/>
<path style=" stroke:none;fill-rule:nonzero;fill:rgb(0%,100%,36.078431%);fill-opacity:1;" d="M 35 181.867188 L 65 181.867188 L 50 155.882813 "/>
<path style=" stroke:none;fill-rule:nonzero;fill:rgb(0%,50%,18.039216%);fill-opacity:1;" d="M 35 181.867188 L 50 155.882813 L 20 155.882813 "/>
<path style=" stroke:none;fill-rule:nonzero;fill:rgb(0%,33.333333%,12.026144%);fill-opacity:1;" d="M 35 181.867188 L 20 155.882813 L 5 181.867188 "/>
<path style=" stroke:none;fill-rule:nonzero;fill:rgb(0%,25%,9.019608%);fill-opacity:1;" d="M 35 181.867188 L 5 181.867188 L 20 207.847656 "/>
<path style=" stroke:none;fill-rule:nonzero;fill:rgb(0%,20%,7.215686%);fill-opacity:1;" d="M 35 181.867188 L 20 207.847656 L 50 207.847656 "/>
<path style=" stroke:none;fill-rule:nonzero;fill:rgb(0%,16.666667%,6.013072%);fill-opacity:1;" d="M 35 181.867188 L 50 207.847656 L 65 181.867188 "/>
<path style=" stroke:none;fill-rule:nonzero;fill:rgb(0%,100%,59.607843%);fill-opacity:1;" d="M 87.5 151.554688 L 117.5 151.554688 L 102.5 125.574219 "/>
<path style=" stroke:none;fill-rule:nonzero;fill:rgb(0%,50%,29.803922%);fill-opacity:1;" d="M 87.5 151.554688 L 102.5 125.574219 L 72.5 125.574219 "/>
<path style=" stroke:none;fill-rule:nonzero;fill:rgb(0%,33.333333%,19.869281%);fill-opacity:1;" d="M 87.5 151.554688 L 72.5 125.574219 L 57.5 151.554688 "/>
<path style=" stroke:none;fill-rule:nonzero;fill:rgb(0%,25%,14.901961%);fill-opacity:1;" d="M 87.5 151.554688 L 57.5 151.554688 L 72.5 177.535156 "/>
<path style=" stroke:none;fill-rule:nonzero;fill:rgb(0%,20%,11.921569%);fill-opacity:1;" d="M 87.5 151.554688 L 72.5 177.535156 L 102.5 177.535156 "/>
<path style=" stroke:none;fill-rule:nonzero;fill:rgb(0%,16.666667%,9.934641%);fill-opacity:1;" d="M 87.5 151.554688 L 102.5 177.535156 L 117.5 151.554688 "/>
<path style=" stroke:none;fill-rule:nonzero;fill:rgb(0%,100%,83.137255%);fill-opacity:1;" d="M 140 181.867188 L 170 181.867188 L 155 155.882813 "/>
<path style=" stroke:none;fill-rule:nonzero;fill:rgb(0%,50%,41.568627%);fill-opacity:1;" d="M 140 181.867188 L 155 155.882813 L 125 155.882813 "/>
<path style=" stroke:none;fill-rule:nonzero;fill:rgb(0%,33.333333%,27.712418%);fill-opacity:1;" d="M 140 181.867188 L 125 155.882813 L 110 181.867188 "/>
<path style=" stroke:none;fill-rule:nonzero;fill:rgb(0%,25%,20.784314%);fill-opacity:1;" d="M 140 181.867188 L 110 181.867188 L 125 207.847656 "/>
<path style=" stroke:none;fill-rule:nonzero;fill:rgb(0%,20%,16.627451%);fill-opacity:1;" d="M 140 181.867188 L 125 207.847656 L 155 207.847656 "/>
<path style=" stroke:none;fill-rule:nonzero;fill:rgb(0%,16.666667%,13.856209%);fill-opacity:1;" d="M 140 181.867188 L 155 207.847656 L 170 181.867188 "/>
<path style=" stroke:none;fill-rule:nonzero;fill:rgb(0%,92.54902%,100%);fill-opacity:1;" d="M 192.5 151.554688 L 222.5 151.554688 L 207.5 125.574219 "/>
<path style=" stroke:none;fill-rule:nonzero;fill:rgb(0%,46.27451%,50%);fill-opacity:1;" d="M 192.5 151.554688 L 207.5 125.574219 L 177.5 125.574219 "/>
<path style=" stroke:none;fill-rule:nonzero;fill:rgb(0%,30.849673%,33.333333%);fill-opacity:1;" d="M 192.5 151.554688 L 177.5 125.574219 L 162.5 151.554688 "/>
<path style=" stroke:none;fill-rule:nonzero;fill:rgb(0%,23.137255%,25%);fill-opacity:1;" d="M 192.5 151.554688 L 162.5 151.554688 L 177.5 177.535156 "/>
<path style=" stroke:none;fill-rule:nonzero;fill:rgb(0%,18.509804%,20%);fill-opacity:1;" d="M 192.5 151.554688 L 177.5 177.535156 L 207.5 177.535156 "/>
<path style=" stroke:none;fill-rule:nonzero;fill:rgb(0%,15.424837%,16.666667%);fill-opacity:1;" d="M 192.5 151.554688 L 207.5 177.535156 L 222.5 151.554688 "/>
<path style=" stroke:none;fill-rule:nonzero;fill:rgb(0%,69.019608%,100%);fill-opacity:1;" d="M 245 181.867188 L 275 181.867188 L 260 155.882813 "/>
<path style=" stroke:none;fill-rule:nonzero;fill:rgb(0%,34.509804%,50%);fill-opacity:1;" d="M 245 181.867188 L 260 155.882813 L 230 155.882813 "/>
<path style=" stroke:none;fill-rule:nonzero;fill:rgb(0%,23.006536%,33.333333%);fill-opacity:1;" d="M 245 181.867188 L 230 155.882813 L 215 181.867188 "/>
<path style=" stroke:none;fill-rule:nonzero;fill:rgb(0%,17.254902%,25%);fill-opacity:1;" d="M 245 181.867188 L 215 181.867188 L 230 207.847656 "/>
<path style=" stroke:none;fill-rule:nonzero;fill:rgb(0%,13.803922%,20%);fill-opacity:1;" d="M 245 181.867188 L 230 207.847656 L 260 207.847656 "/>
<path style=" stroke:none;fill-rule:nonzero;fill:rgb(0%,11.503268%,16.666667%);fill-opacity:1;" d="M 245 181.867188 L 260 207.847656 L 275 181.867188 "/>
<path style=" stroke:none;fill-rule:nonzero;fill:rgb(0%,45.490196%,100%);fill-opacity:1;" d="M 35 242.488281 L 65 242.488281 L 50 216.507813 "/>
<path style=" stroke:none;fill-rule:nonzero;fill:rgb(0%,22.745098%,50%);fill-opacity:1;" d="M 35 242.488281 L 50 216.507813 L 20 216.507813 "/>
<path style=" stroke:none;fill-rule:nonzero;fill:rgb(0%,15.163399%,33.333333%);fill-opacity:1;" d="M 35 242.488281 L 20 216.507813 L 5 242.488281 "/>
<path style=" stroke:none;fill-rule:nonzero;fill:rgb(0%,11.372549%,25%);fill-opacity:1;" d="M 35 242.488281 L 5 242.488281 L 20 268.46875 "/>
<path style=" stroke:none;fill-rule:nonzero;fill:rgb(0%,9.098039%,20%);fill-opacity:1;" d="M 35 242.488281 L 20 268.46875 L 50 268.46875 "/>
<path style=" stroke:none;fill-rule:nonzero;fill:rgb(0%,7.581699%,16.666667%);fill-opacity:1;" d="M 35 242.488281 L 50 268.46875 L 65 242.488281 "/>
<path style=" stroke:none;fill-rule:nonzero;fill:rgb(0%,21.960784%,100%);fill-opacity:1;" d="M 87.5 212.175781 L 117.5 212.175781 L 102.5 186.195313 "/>
<path style=" stroke:none;fill-rule:nonzero;fill:rgb(0%,10.980392%,50%);fill-opacity:1;" d="M 87.5 212.175781 L 102.5 186.195313 L 72.5 186.195313 "/>
<path style=" stroke:none;fill-rule:nonzero;fill:rgb(0%,7.320261%,33.333333%);fill-opacity:1;" d="M 87.5 212.175781 L 72.5 186.195313 L 57.5 212.175781 "/>
<path style=" stroke:none;fill-rule:nonzero;fill:rgb(0%,5.490196%,25%);fill-opacity:1;" d="M 87.5 212.175781 L 57.5 212.175781 L 72.5 238.15625 "/>
<path style=" stroke:none;fill-rule:nonzero;fill:rgb(0%,4.392157%,20%);fill-opacity:1;" d="M 87.5 212.175781 L 72.5 238.15625 L 102.5 238.15625 "/>
<path style=" stroke:none;fill-rule:nonzero;fill:rgb(0%,3.660131%,16.666667%);fill-opacity:1;" d="M 87.5 212.175781 L 102.5 238.15625 L 117.5 212.175781 "/>
<path style=" stroke:none;fill-rule:nonzero;fill:rgb(2.352941%,0.784314%,100%);fill-opacity:1;" d="M 140 242.488281 L 170 242.488281 L 155 216.507813 "/>
<path style=" stroke:none;fill-rule:nonzero;fill:rgb(1.176471%,0.392157%,50%);fill-opacity:1;" d="M 140 242.488281 L 155 216.507813 L 125 216.507813 "/>
<path style=" stroke:none;fill-rule:nonzero;fill:rgb(0.784314%,0.261438%,33.333333%);fill-opacity:1;" d="M 140 242.488281 L 125 216.507813 L 110 242.488281 "/>
<path style=" stroke:none;fill-rule:nonzero;fill:rgb(0.588235%,0.196078%,25%);fill-opacity:1;" d="M 140 242.488281 L 110 242.488281 L 125 268.46875 "/>
<path style=" stroke:none;fill-rule:nonzero;fill:rgb(0.470588%,0.156863%,20%);fill-opacity:1;" d="M 140 242.488281 L 125 268.46875 L 155 268.46875 "/>
<path style=" stroke:none;fill-rule:nonzero;fill:rgb(0.392157%,0.130719%,16.666667%);fill-opacity:1;" d="M 140 242.488281 L 155 268.46875 L 170 242.488281 "/>
<path style=" stroke:none;fill-rule:nonzero;fill:rgb(25.098039%,0%,100%);fill-opacity:1;" d="M 192.5 212.175781 L 222.5 212.175781 L 207.5 186.195313 "/>
<path style=" stroke:none;fill-rule:nonzero;fill:rgb(12.54902%,0%,50%);fill-opacity:1;" d="M 192.5 212.175781 L 207.5 186.195313 L 177.5 186.195313 "/>
<path style=" stroke:none;fill-rule:nonzero;fill:rgb(8.366013%,0%,33.333333%);fill-opacity:1;" d="M 192.5 212.175781 L 177.5 186.195313 L 162.5 212.175781 "/>
<path style=" stroke:none;fill-rule:nonzero;fill:rgb(6.27451%,0%,25%);fill-opacity:1;" d="M 192.5 212.175781 L 162.5 212.175781 L 177.5 238.15625 "/>
<path style=" stroke:none;fill-rule:nonzero;fill:rgb(5.019608%,0%,20%);fill-opacity:1;" d="M 192.5 212.175781 L 177.5 238.15625 L 207.5 238.15625 "/>
<path style=" stroke:none;fill-rule:nonzero;fill:rgb(4.183007%,0%,16.666667%);fill-opacity:1;" d="M 192.5 212.175781 L 207.5 238.15625 L 222.5 212.175781 "/>
<path style=" stroke:none;fill-rule:nonzero;fill:rgb(48.627451%,0%,100%);fill-opacity:1;" d="M 245 242.488281 L 275 242.488281 L 260 216.507813 "/>
<path style=" stroke:none;fill-rule:nonzero;fill:rgb(24.313725%,0%,50%);fill-opacity:1;" d="M 245 242.488281 L 260 216.507813 L 230 216.507813 "/>
<path style=" stroke:none;fill-rule:nonzero;fill:rgb(16.20915%,0%,33.333333%);fill-opacity:1;" d="M 245 242.488281 L 230 216.507813 L 215 242.488281 "/>
<path style=" stroke:none;fill-rule:nonzero;fill:rgb(12.156863%,0%,25%);fill-opacity:1;" d="M 245 242.488281 L 215 242.488281 L 230 268.46875 "/>
<path style=" stroke:none;fill-rule:nonzero;fill:rgb(9.72549%,0%,20%);fill-opacity:1;" d="M 245 242.488281 L 230 268.46875 L 260 268.46875 "/>
<path style=" stroke:none;fill-rule:nonzero;fill:rgb(8.104575%,0%,16.666667%);fill-opacity:1;" d="M 245 242.488281 L 260 268.46875 L 275 242.488281 "/>
<path style=" stroke:none;fill-rule:nonzero;fill:rgb(72.156863%,0%,100%);fill-opacity:1;" d="M 35 303.109375 L 65 303.109375 L 50 277.128906 "/>
<path style=" stroke:none;fill-rule:nonzero;fill:rgb(36.078431%,0%,50%);fill-opacity:1;" d="M 35 303.109375 L 50 277.128906 L 20 277.128906 "/>
<path style=" stroke:none;fill-rule:nonzero;fill:rgb(24.052288%,0%,33.333333%);fill-opacity:1;" d="M 35 303.109375 L 20 277.128906 L 5 303.109375 "/>
<path style=" stroke:none;fill-rule:nonzero;fill:rgb(18.039216%,0%,25%);fill-opacity:1;" d="M 35 303.109375 L 5 303.109375 L 20 329.089844 "/>
<path style=" stroke:none;fill-rule:nonzero;fill:rgb(14.431373%,0%,20%);fill-opacity:1;" d="M 35 303.109375 L 20 329.089844 L 50 329.089844 "/>
<path style=" stroke:none;fill-rule:nonzero;fill:rgb(12.026144%,0%,16.666667%);fill-opacity:1;" d="M 35 303.109375 L 50 329.089844 L 65 303.109375 "/>
<path style=" stroke:none;fill-rule:nonzero;fill:rgb(96.078431%,0%,100%);fill-opacity:1;" d="M 87.5 272.796875 L 117.5 272.796875 L 102.5 246.816406 "/>
<path style=" stroke:none;fill-rule:nonzero;fill:rgb(48.039216%,0%,50%);fill-opacity:1;" d="M 87.5 272.796875 L 102.5 246.816406 L 72.5 246.816406 "/>
<path style=" stroke:none;fill-rule:nonzero;fill:rgb(32.026144%,0%,33.333333%);fill-opacity:1;" d="M 87.5 272.796875 L 72.5 246.816406 L 57.5 272.796875 "/>
<path style=" stroke:none;fill-rule:nonzero;fill:rgb(24.019608%,0%,25%);fill-opacity:1;" d="M 87.5 272.796875 L 57.5 272.796875 L 72.5 298.777344 "/>
<path style=" stroke:none;fill-rule:nonzero;fill:rgb(19.215686%,0%,20%);fill-opacity:1;" d="M 87.5 272.796875 L 72.5 298.777344 L 102.5 298.777344 "/>
<path style=" stroke:none;fill-rule:nonzero;fill:rgb(16.013072%,0%,16.666667%);fill-opacity:1;" d="M 87.5 272.796875 L 102.5 298.777344 L 117.5 272.796875 "/>
<path style=" stroke:none;fill-rule:nonzero;fill:rgb(100%,0%,80%);fill-opacity:1;" d="M 140 303.109375 L 170 303.109375 L 155 277.128906 "/>
<path style=" stroke:none;fill-rule:nonzero;fill:rgb(50%,0%,40%);fill-opacity:1;" d="M 140 303.109375 L 155 277.128906 L 125 277.128906 "/>
<path style=" stroke:none;fill-rule:nonzero;fill:rgb(33.333333%,0%,26.666667%);fill-opacity:1;" d="M 140 303.109375 L 125 277.128906 L 110 303.109375 "/>
<path style=" stroke:none;fill-rule:nonzero;fill:rgb(25%,0%,20%);fill-opacity:1;" d="M 140 303.109375 L 110 303.109375 L 125 329.089844 "/>
<path style=" stroke:none;fill-rule:nonzero;fill:rgb(20%,0%,16%);fill-opacity:1;" d="M 140 303.109375 L 125 329.089844 L 155 329.089844 "/>
<path style=" stroke:none;fill-rule:nonzero;fill:rgb(16.666667%,0%,13.333333%);fill-opacity:1;" d="M 140 303.109375 L 155 329.089844 L 170 303.109375 "/>
<path style=" stroke:none;fill-rule:nonzero;fill:rgb(100%,0%,56.470588%);fill-opacity:1;" d="M 192.5 272.796875 L 222.5 272.796875 L 207.5 246.816406 "/>
<path style=" stroke:none;fill-rule:nonzero;fill:rgb(50%,0%,28.235294%);fill-opacity:1;" d="M 192.5 272.796875 L 207.5 246.816406 L 177.5 246.816406 "/>
<path style=" stroke:none;fill-rule:nonzero;fill:rgb(33.333333%,0%,18.823529%);fill-opacity:1;" d="M 192.5 272.796875 L 177.5 246.816406 L 162.5 272.796875 "/>
<path style=" stroke:none;fill-rule:nonzero;fill:rgb(25%,0%,14.117647%);fill-opacity:1;" d="M 192.5 272.796875 L 162.5 272.796875 L 177.5 298.777344 "/>
<path style=" stroke:none;fill-rule:nonzero;fill:rgb(20%,0%,11.294118%);fill-opacity:1;" d="M 192.5 272.796875 L 177.5 298.777344 L 207.5 298.777344 "/>
<path style=" stroke:none;fill-rule:nonzero;fill:rgb(16.666667%,0%,9.411765%);fill-opacity:1;" d="M 192.5 272.796875 L 207.5 298.777344 L 222.5 272.796875 "/>
<path style=" stroke:none;fill-rule:nonzero;fill:rgb(100%,0%,32.941176%);fill-opacity:1;" d="M 245 303.109375 L 275 303.109375 L 260 277.128906 "/>
<path style=" stroke:none;fill-rule:nonzero;fill:rgb(50%,0%,16.470588%);fill-opacity:1;" d="M 245 303.109375 L 260 277.128906 L 230 277.128906 "/>
<path style=" stroke:none;fill-rule:nonzero;fill:rgb(33.333333%,0%,10.980392%);fill-opacity:1;" d="M 245 303.109375 L 230 277.128906 L 215 303.109375 "/>
<path style=" stroke:none;fill-rule:nonzero;fill:rgb(25%,0%,8.235294%);fill-opacity:1;" d="M 245 303.109375 L 215 303.109375 L 230 329.089844 "/>
<path style=" stroke:none;fill-rule:nonzero;fill:rgb(20%,0%,6.588235%);fill-opacity:1;" d="M 245 303.109375 L 230 329.089844 L 260 329.089844 "/>
<path style=" stroke:none;fill-rule:nonzero;fill:rgb(16.666667%,0%,5.490196%);fill-opacity:1;" d="M 245 303.109375 L 260 329.089844 L 275 303.109375 "/>
</g>
</svg>
