<?xml version="1.0" encoding="UTF-8"?>
<svg xmlns="http://www.w3.org/2000/svg" xmlns:xlink="http://www.w3.org/1999/xlink" width="333.41978pt" height="280pt" viewBox="0 0 333.41978 280" version="1.1">
<g id="surface3136">
<path style=" stroke:none;fill-rule:nonzero;fill:rgb(100%,0%,0%);fill-opacity:1;" d="M 30.3125 35 L 56.292969 20 L 30.3125 5 "/>
<path style=" stroke:none;fill-rule:nonzero;fill:rgb(50%,0%,0%);fill-opacity:1;" d="M 30.3125 35 L 30.3125 5 L 4.332031 20 "/>
<path style=" stroke:none;fill-rule:nonzero;fill:rgb(33.333333%,0%,0%);fill-opacity:1;" d="M 30.3125 35 L 4.332031 20 L 4.332031 50 "/>
<path style=" stroke:none;fill-rule:nonzero;fill:rgb(25%,0%,0%);fill-opacity:1;" d="M 30.3125 35 L 4.332031 50 L 30.3125 65 "/>
<path style=" stroke:none;fill-rule:nonzero;fill:rgb(20%,0%,0%);fill-opacity:1;" d="M 30.3125 35 L 30.3125 65 L 56.292969 50 "/>
<path style=" stroke:none;fill-rule:nonzero;fill:rgb(16.666667%,0%,0%);fill-opacity:1;" d="M 30.3125 35 L 56.292969 50 L 56.292969 20 "/>
<path style=" stroke:none;fill-rule:nonzero;fill:rgb(100%,23.529412%,0%);fill-opacity:1;" d="M 90.933594 35 L 116.914063 20 L 90.933594 5 "/>
<path style=" stroke:none;fill-rule:nonzero;fill:rgb(50%,11.764706%,0%);fill-opacity:1;" d="M 90.933594 35 L 90.933594 5 L 64.953125 20 "/>
<path style=" stroke:none;fill-rule:nonzero;fill:rgb(33.333333%,7.843137%,0%);fill-opacity:1;" d="M 90.933594 35 L 64.953125 20 L 64.953125 50 "/>
<path style=" stroke:none;fill-rule:nonzero;fill:rgb(25%,5.882353%,0%);fill-opacity:1;" d="M 90.933594 35 L 64.953125 50 L 90.933594 65 "/>
<path style=" stroke:none;fill-rule:nonzero;fill:rgb(20%,4.705882%,0%);fill-opacity:1;" d="M 90.933594 35 L 90.933594 65 L 116.914063 50 "/>
<path style=" stroke:none;fill-rule:nonzero;fill:rgb(16.666667%,3.921569%,0%);fill-opacity:1;" d="M 90.933594 35 L 116.914063 50 L 116.914063 20 "/>
<path style=" stroke:none;fill-rule:nonzero;fill:rgb(100%,47.058824%,0%);fill-opacity:1;" d="M 151.554688 35 L 177.535156 20 L 151.554688 5 "/>
<path style=" stroke:none;fill-rule:nonzero;fill:rgb(50%,23.529412%,0%);fill-opacity:1;" d="M 151.554688 35 L 151.554688 5 L 125.574219 20 "/>
<path style=" stroke:none;fill-rule:nonzero;fill:rgb(33.333333%,15.686275%,0%);fill-opacity:1;" d="M 151.554688 35 L 125.574219 20 L 125.574219 50 "/>
<path style=" stroke:none;fill-rule:nonzero;fill:rgb(25%,11.764706%,0%);fill-opacity:1;" d="M 151.554688 35 L 125.574219 50 L 151.554688 65 "/>
<path style=" stroke:none;fill-rule:nonzero;fill:rgb(20%,9.411765%,0%);fill-opacity:1;" d="M 151.554688 35 L 151.554688 65 L 177.535156 50 "/>
<path style=" stroke:none;fill-rule:nonzero;fill:rgb(16.666667%,7.843137%,0%);fill-opacity:1;" d="M 151.554688 35 L 177.535156 50 L 177.535156 20 "/>
<path style=" stroke:none;fill-rule:nonzero;fill:rgb(100%,70.588235%,0%);fill-opacity:1;" d="M 212.175781 35 L 238.15625 20 L 212.175781 5 "/>
<path style=" stroke:none;fill-rule:nonzero;fill:rgb(50%,35.294118%,0%);fill-opacity:1;" d="M 212.175781 35 L 212.175781 5 L 186.195313 20 "/>
<path style=" stroke:none;fill-rule:nonzero;fill:rgb(33.333333%,23.529412%,0%);fill-opacity:1;" d="M 212.175781 35 L 186.195313 20 L 186.195313 50 "/>
<path style=" stroke:none;fill-rule:nonzero;fill:rgb(25%,17.647059%,0%);fill-opacity:1;" d="M 212.175781 35 L 186.195313 50 L 212.175781 65 "/>
<path style=" stroke:none;fill-rule:nonzero;fill:rgb(20%,14.117647%,0%);fill-opacity:1;" d="M 212.175781 35 L 212.175781 65 L 238.15625 50 "/>
<path style=" stroke:none;fill-rule:nonzero;fill:rgb(16.666667%,11.764706%,0%);fill-opacity:1;" d="M 212.175781 35 L 238.15625 50 L 238.15625 20 "/>
<path style=" stroke:none;fill-rule:nonzero;fill:rgb(99.607843%,94.117647%,0%);fill-opacity:1;" d="M 272.796875 35 L 298.777344 20 L 272.796875 5 "/>
<path style=" stroke:none;fill-rule:nonzero;fill:rgb(49.803922%,47.058824%,0%);fill-opacity:1;" d="M 272.796875 35 L 272.796875 5 L 246.816406 20 "/>
<path style=" stroke:none;fill-rule:nonzero;fill:rgb(33.202614%,31.372549%,0%);fill-opacity:1;" d="M 272.796875 35 L 246.816406 20 L 246.816406 50 "/>
<path style=" stroke:none;fill-rule:nonzero;fill:rgb(24.901961%,23.529412%,0%);fill-opacity:1;" d="M 272.796875 35 L 246.816406 50 L 272.796875 65 "/>
<path style=" stroke:none;fill-rule:nonzero;fill:rgb(19.921569%,18.823529%,0%);fill-opacity:1;" d="M 272.796875 35 L 272.796875 65 L 298.777344 50 "/>
<path style=" stroke:none;fill-rule:nonzero;fill:rgb(16.601307%,15.686275%,0%);fill-opacity:1;" d="M 272.796875 35 L 298.777344 50 L 298.777344 20 "/>
<path style=" stroke:none;fill-rule:nonzero;fill:rgb(81.568627%,100%,0%);fill-opacity:1;" d="M 60.621094 87.5 L 86.601563 72.5 L 60.621094 57.5 "/>
<path style=" stroke:none;fill-rule:nonzero;fill:rgb(40.784314%,50%,0%);fill-opacity:1;" d="M 60.621094 87.5 L 60.621094 57.5 L 34.640625 72.5 "/>
<path style=" stroke:none;fill-rule:nonzero;fill:rgb(27.189542%,33.333333%,0%);fill-opacity:1;" d="M 60.621094 87.5 L 34.640625 72.5 L 34.640625 102.5 "/>
<path style=" stroke:none;fill-rule:nonzero;fill:rgb(20.392157%,25%,0%);fill-opacity:1;" d="M 60.621094 87.5 L 34.640625 102.5 L 60.621094 117.5 "/>
<path style=" stroke:none;fill-rule:nonzero;fill:rgb(16.313725%,20%,0%);fill-opacity:1;" d="M 60.621094 87.5 L 60.621094 117.5 L 86.601563 102.5 "/>
<path style=" stroke:none;fill-rule:nonzero;fill:rgb(13.594771%,16.666667%,0%);fill-opacity:1;" d="M 60.621094 87.5 L 86.601563 102.5 L 86.601563 72.5 "/>
<path style=" stroke:none;fill-rule:nonzero;fill:rgb(58.039216%,100%,0%);fill-opacity:1;" d="M 121.242188 87.5 L 147.222656 72.5 L 121.242188 57.5 "/>
<path style=" stroke:none;fill-rule:nonzero;fill:rgb(29.019608%,50%,0%);fill-opacity:1;" d="M 121.242188 87.5 L 121.242188 57.5 L 95.261719 72.5 "/>
<path style=" stroke:none;fill-rule:nonzero;fill:rgb(19.346405%,33.333333%,0%);fill-opacity:1;" d="M 121.242188 87.5 L 95.261719 72.5 L 95.261719 102.5 "/>
<path style=" stroke:none;fill-rule:nonzero;fill:rgb(14.509804%,25%,0%);fill-opacity:1;" d="M 121.242188 87.5 L 95.261719 102.5 L 121.242188 117.5 "/>
<path style=" stroke:none;fill-rule:nonzero;fill:rgb(11.607843%,20%,0%);fill-opacity:1;" d="M 121.242188 87.5 L 121.242188 117.5 L 147.222656 102.5 "/>
<path style=" stroke:none;fill-rule:nonzero;fill:rgb(9.673203%,16.666667%,0%);fill-opacity:1;" d="M 121.242188 87.5 L 147.222656 102.5 L 147.222656 72.5 "/>
<path style=" stroke:none;fill-rule:nonzero;fill:rgb(34.509804%,100%,0%);fill-opacity:1;" d="M 181.867188 87.5 L 207.847656 72.5 L 181.867188 57.5 "/>
<path style=" stroke:none;fill-rule:nonzero;fill:rgb(17.254902%,50%,0%);fill-opacity:1;" d="M 181.867188 87.5 L 181.867188 57.5 L 155.882813 72.5 "/>
<path style=" stroke:none;fill-rule:nonzero;fill:rgb(11.503268%,33.333333%,0%);fill-opacity:1;" d="M 181.867188 87.5 L 155.882813 72.5 L 155.882813 102.5 "/>
<path style=" stroke:none;fill-rule:nonzero;fill:rgb(8.627451%,25%,0%);fill-opacity:1;" d="M 181.867188 87.5 L 155.882813 102.5 L 181.867188 117.5 "/>
<path style=" stroke:none;fill-rule:nonzero;fill:rgb(6.901961%,20%,0%);fill-opacity:1;" d="M 181.867188 87.5 L 181.867188 117.5 L 207.847656 102.5 "/>
<path style=" stroke:none;fill-rule:nonzero;fill:rgb(5.751634%,16.666667%,0%);fill-opacity:1;" d="M 181.867188 87.5 L 207.847656 102.5 L 207.847656 72.5 "/>
<path style=" stroke:none;fill-rule:nonzero;fill:rgb(10.980392%,100%,0%);fill-opacity:1;" d="M 242.488281 87.5 L 268.46875 72.5 L 242.488281 57.5 "/>
<path style=" stroke:none;fill-rule:nonzero;fill:rgb(5.490196%,50%,0%);fill-opacity:1;" d="M 242.488281 87.5 L 242.488281 57.5 L 216.507813 72.5 "/>
<path style=" stroke:none;fill-rule:nonzero;fill:rgb(3.660131%,33.333333%,0%);fill-opacity:1;" d="M 242.488281 87.5 L 216.507813 72.5 L 216.507813 102.5 "/>
<path style=" stroke:none;fill-rule:nonzero;fill:rgb(2.745098%,25%,0%);fill-opacity:1;" d="M 242.488281 87.5 L 216.507813 102.5 L 242.488281 117.5 "/>
<path style=" stroke:none;fill-rule:nonzero;fill:rgb(2.196078%,20%,0%);fill-opacity:1;" d="M 242.488281 87.5 L 242.488281 117.5 L 268.46875 102.5 "/>
<path style=" stroke:none;fill-rule:nonzero;fill:rgb(1.830065%,16.666667%,0%);fill-opacity:1;" d="M 242.488281 87.5 L 268.46875 102.5 L 268.46875 72.5 "/>
<path style=" stroke:none;fill-rule:nonzero;fill:rgb(0%,100%,12.54902%);fill-opacity:1;" d="M 303.109375 87.5 L 329.089844 72.5 L 303.109375 57.5 "/>
<path style=" stroke:none;fill-rule:nonzero;fill:rgb(0%,50%,6.27451%);fill-opacity:1;" d="M 303.109375 87.5 L 303.109375 57.5 L 277.128906 72.5 "/>
<path style=" stroke:none;fill-rule:nonzero;fill:rgb(0%,33.333333%,4.183007%);fill-opacity:1;" d="M 303.109375 87.5 L 277.128906 72.5 L 277.128906 102.5 "/>
<path style=" stroke:none;fill-rule:nonzero;fill:rgb(0%,25%,3.137255%);fill-opacity:1;" d="M 303.109375 87.5 L 277.128906 102.5 L 303.109375 117.5 "/>
<path style=" stroke:none;fill-rule:nonzero;fill:rgb(0%,20%,2.509804%);fill-opacity:1;" d="M 303.109375 87.5 L 303.109375 117.5 L 329.089844 102.5 "/>
<path style=" stroke:none;fill-rule:nonzero;fill:rgb(0%,16.666667%,2.091503%);fill-opacity:1;" d="M 303.109375 87.5 L 329.089844 102.5 L 329.089844 72.5 "/>
<path style=" stroke:none;fill-rule:nonzero;fill:rgb(0%,100%,36.078431%);fill-opacity:1;" d="M 30.3125 140 L 56.292969 125 L 30.3125 110 "/>
<path style=" stroke:none;fill-rule:nonzero;fill:rgb(0%,50%,18.039216%);fill-opacity:1;" d="M 30.3125 140 L 30.3125 110 L 4.332031 125 "/>
<path style=" stroke:none;fill-rule:nonzero;fill:rgb(0%,33.333333%,12.026144%);fill-opacity:1;" d="M 30.3125 140 L 4.332031 125 L 4.332031 155 "/>
<path style=" stroke:none;fill-rule:nonzero;fill:rgb(0%,25%,9.019608%);fill-opacity:1;" d="M 30.3125 140 L 4.332031 155 L 30.3125 170 "/>
<path style=" stroke:none;fill-rule:nonzero;fill:rgb(0%,20%,7.215686%);fill-opacity:1;" d="M 30.3125 140 L 30.3125 170 L 56.292969 155 "/>
<path style=" stroke:none;fill-rule:nonzero;fill:rgb(0%,16.666667%,6.013072%);fill-opacity:1;" d="M 30.3125 140 L 56.292969 155 L 56.292969 125 "/>
<path style=" stroke:none;fill-rule:nonzero;fill:rgb(0%,100%,59.607843%);fill-opacity:1;" d="M 90.933594 140 L 116.914063 125 L 90.933594 110 "/>
<path style=" stroke:none;fill-rule:nonzero;fill:rgb(0%,50%,29.803922%);fill-opacity:1;" d="M 90.933594 140 L 90.933594 110 L 64.953125 125 "/>
<path style=" stroke:none;fill-rule:nonzero;fill:rgb(0%,33.333333%,19.869281%);fill-opacity:1;" d="M 90.933594 140 L 64.953125 125 L 64.953125 155 "/>
<path style=" stroke:none;fill-rule:nonzero;fill:rgb(0%,25%,14.901961%);fill-opacity:1;" d="M 90.933594 140 L 64.953125 155 L 90.933594 170 "/>
<path style=" stroke:none;fill-rule:nonzero;fill:rgb(0%,20%,11.921569%);fill-opacity:1;" d="M 90.933594 140 L 90.933594 170 L 116.914063 155 "/>
<path style=" stroke:none;fill-rule:nonzero;fill:rgb(0%,16.666667%,9.934641%);fill-opacity:1;" d="M 90.933594 140 L 116.914063 155 L 116.914063 125 "/>
<path style=" stroke:none;fill-rule:nonzero;fill:rgb(0%,100%,83.137255%);fill-opacity:1;" d="M 151.554688 140 L 177.535156 125 L 151.554688 110 "/>
<path style=" stroke:none;fill-rule:nonzero;fill:rgb(0%,50%,41.568627%);fill-opacity:1;" d="M 151.554688 140 L 151.554688 110 L 125.574219 125 "/>
<path style=" stroke:none;fill-rule:nonzero;fill:rgb(0%,33.333333%,27.712418%);fill-opacity:1;" d="M 151.554688 140 L 125.574219 125 L 125.574219 155 "/>
<path style=" stroke:none;fill-rule:nonzero;fill:rgb(0%,25%,20.784314%);fill-opacity:1;" d="M 151.554688 140 L 125.574219 155 L 151.554688 170 "/>
<path style=" stroke:none;fill-rule:nonzero;fill:rgb(0%,20%,16.627451%);fill-opacity:1;" d="M 151.554688 140 L 151.554688 170 L 177.535156 155 "/>
<path style=" stroke:none;fill-rule:nonzero;fill:rgb(0%,16.666667%,13.856209%);fill-opacity:1;" d="M 151.554688 140 L 177.535156 155 L 177.535156 125 "/>
<path style=" stroke:none;fill-rule:nonzero;fill:rgb(0%,92.54902%,100%);fill-opacity:1;" d="M 212.175781 140 L 238.15625 125 L 212.175781 110 "/>
<path style=" stroke:none;fill-rule:nonzero;fill:rgb(0%,46.27451%,50%);fill-opacity:1;" d="M 212.175781 140 L 212.175781 110 L 186.195313 125 "/>
<path style=" stroke:none;fill-rule:nonzero;fill:rgb(0%,30.849673%,33.333333%);fill-opacity:1;" d="M 212.175781 140 L 186.195313 125 L 186.195313 155 "/>
<path style=" stroke:none;fill-rule:nonzero;fill:rgb(0%,23.137255%,25%);fill-opacity:1;" d="M 212.175781 140 L 186.195313 155 L 212.175781 170 "/>
<path style=" stroke:none;fill-rule:nonzero;fill:rgb(0%,18.509804%,20%);fill-opacity:1;" d="M 212.175781 140 L 212.175781 170 L 238.15625 155 "/>
<path style=" stroke:none;fill-rule:nonzero;fill:rgb(0%,15.424837%,16.666667%);fill-opacity:1;" d="M 212.175781 140 L 238.15625 155 L 238.15625 125 "/>
<path style=" stroke:none;fill-rule:nonzero;fill:rgb(0%,69.019608%,100%);fill-opacity:1;" d="M 272.796875 140 L 298.777344 125 L 272.796875 110 "/>
<path style=" stroke:none;fill-rule:nonzero;fill:rgb(0%,34.509804%,50%);fill-opacity:1;" d="M 272.796875 140 L 272.796875 110 L 246.816406 125 "/>
<path style=" stroke:none;fill-rule:nonzero;fill:rgb(0%,23.006536%,33.333333%);fill-opacity:1;" d="M 272.796875 140 L 246.816406 125 L 246.816406 155 "/>
<path style=" stroke:none;fill-rule:nonzero;fill:rgb(0%,17.254902%,25%);fill-opacity:1;" d="M 272.796875 140 L 246.816406 155 L 272.796875 170 "/>
<path style=" stroke:none;fill-rule:nonzero;fill:rgb(0%,13.803922%,20%);fill-opacity:1;" d="M 272.796875 140 L 272.796875 170 L 298.777344 155 "/>
<path style=" stroke:none;fill-rule:nonzero;fill:rgb(0%,11.503268%,16.666667%);fill-opacity:1;" d="M 272.796875 140 L 298.777344 155 L 298.777344 125 "/>
<path style=" stroke:none;fill-rule:nonzero;fill:rgb(0%,45.490196%,100%);fill-opacity:1;" d="M 60.621094 192.5 L 86.601563 177.5 L 60.621094 162.5 "/>
<path style=" stroke:none;fill-rule:nonzero;fill:rgb(0%,22.745098%,50%);fill-opacity:1;" d="M 60.621094 192.5 L 60.621094 162.5 L 34.640625 177.5 "/>
<path style=" stroke:none;fill-rule:nonzero;fill:rgb(0%,15.163399%,33.333333%);fill-opacity:1;" d="M 60.621094 192.5 L 34.640625 177.5 L 34.640625 207.5 "/>
<path style=" stroke:none;fill-rule:nonzero;fill:rgb(0%,11.372549%,25%);fill-opacity:1;" d="M 60.621094 192.5 L 34.640625 207.5 L 60.621094 222.5 "/>
<path style=" stroke:none;fill-rule:nonzero;fill:rgb(0%,9.098039%,20%);fill-opacity:1;" d="M 60.621094 192.5 L 60.621094 222.5 L 86.601563 207.5 "/>
<path style=" stroke:none;fill-rule:nonzero;fill:rgb(0%,7.581699%,16.666667%);fill-opacity:1;" d="M 60.621094 192.5 L 86.601563 207.5 L 86.601563 177.5 "/>
<path style=" stroke:none;fill-rule:nonzero;fill:rgb(0%,21.960784%,100%);fill-opacity:1;" d="M 121.242188 192.5 L 147.222656 177.5 L 121.242188 162.5 "/>
<path style=" stroke:none;fill-rule:nonzero;fill:rgb(0%,10.980392%,50%);fill-opacity:1;" d="M 121.242188 192.5 L 121.242188 162.5 L 95.261719 177.5 "/>
<path style=" stroke:none;fill-rule:nonzero;fill:rgb(0%,7.320261%,33.333333%);fill-opacity:1;" d="M 121.242188 192.5 L 95.261719 177.5 L 95.261719 207.5 "/>
<path style=" stroke:none;fill-rule:nonzero;fill:rgb(0%,5.490196%,25%);fill-opacity:1;" d="M 121.242188 192.5 L 95.261719 207.5 L 121.242188 222.5 "/>
<path style=" stroke:none;fill-rule:nonzero;fill:rgb(0%,4.392157%,20%);fill-opacity:1;" d="M 121.242188 192.5 L 121.242188 222.5 L 147.222656 207.5 "/>
<path style=" stroke:none;fill-rule:nonzero;fill:rgb(0%,3.660131%,16.666667%);fill-opacity:1;" d="M 121.242188 192.5 L 147.222656 207.5 L 147.222656 177.5 "/>
<path style=" stroke:none;fill-rule:nonzero;fill:rgb(2.352941%,0.784314%,100%);fill-opacity:1;" d="M 181.867188 192.5 L 207.847656 177.5 L 181.867188 162.5 "/>
<path style=" stroke:none;fill-rule:nonzero;fill:rgb(1.176471%,0.392157%,50%);fill-opacity:1;" d="M 181.867188 192.5 L 181.867188 162.5 L 155.882813 177.5 "/>
<path style=" stroke:none;fill-rule:nonzero;fill:rgb(0.784314%,0.261438%,33.333333%);fill-opacity:1;" d="M 181.867188 192.5 L 155.882813 177.5 L 155.882813 207.5 "/>
<path style=" stroke:none;fill-rule:nonzero;fill:rgb(0.588235%,0.196078%,25%);fill-opacity:1;" d="M 181.867188 192.5 L 155.882813 207.5 L 181.867188 222.5 "/>
<path style=" stroke:none;fill-rule:nonzero;fill:rgb(0.470588%,0.156863%,20%);fill-opacity:1;" d="M 181.867188 192.5 L 181.867188 222.5 L 207.847656 207.5 "/>
<path style=" stroke:none;fill-rule:nonzero;fill:rgb(0.392157%,0.130719%,16.666667%);fill-opacity:1;" d="M 181.867188 192.5 L 207.847656 207.5 L 207.847656 177.5 "/>
<path style=" stroke:none;fill-rule:nonzero;fill:rgb(25.098039%,0%,100%);fill-opacity:1;" d="M 242.488281 192.5 L 268.46875 177.5 L 242.488281 162.5 "/>
<path style=" stroke:none;fill-rule:nonzero;fill:rgb(12.54902%,0%,50%);fill-opacity:1;" d="M 242.488281 192.5 L 242.488281 162.5 L 216.507813 177.5 "/>
<path style=" stroke:none;fill-rule:nonzero;fill:rgb(8.366013%,0%,33.333333%);fill-opacity:1;" d="M 242.488281 192.5 L 216.507813 177.5 L 216.507813 207.5 "/>
<path style=" stroke:none;fill-rule:nonzero;fill:rgb(6.27451%,0%,25%);fill-opacity:1;" d="M 242.488281 192.5 L 216.507813 207.5 L 242.488281 222.5 "/>
<path style=" stroke:none;fill-rule:nonzero;fill:rgb(5.019608%,0%,20%);fill-opacity:1;" d="M 242.488281 192.5 L 242.488281 222.5 L 268.46875 207.5 "/>
<path style=" stroke:none;fill-rule:nonzero;fill:rgb(4.183007%,0%,16.666667%);fill-opacity:1;" d="M 242.488281 192.5 L 268.46875 207.5 L 268.46875 177.5 "/>
<path style=" stroke:none;fill-rule:nonzero;fill:rgb(48.627451%,0%,100%);fill-opacity:1;" d="M 303.109375 192.5 L 329.089844 177.5 L 303.109375 162.5 "/>
<path style=" stroke:none;fill-rule:nonzero;fill:rgb(24.313725%,0%,50%);fill-opacity:1;" d="M 303.109375 192.5 L 303.109375 162.5 L 277.128906 177.5 "/>
<path style=" stroke:none;fill-rule:nonzero;fill:rgb(16.20915%,0%,33.333333%);fill-opacity:1;" d="M 303.109375 192.5 L 277.128906 177.5 L 277.128906 207.5 "/>
<path style=" stroke:none;fill-rule:nonzero;fill:rgb(12.156863%,0%,25%);fill-opacity:1;" d="M 303.109375 192.5 L 277.128906 207.5 L 303.109375 222.5 "/>
<path style=" stroke:none;fill-rule:nonzero;fill:rgb(9.72549%,0%,20%);fill-opacity:1;" d="M 303.109375 192.5 L 303.109375 222.5 L 329.089844 207.5 "/>
<path style=" stroke:none;fill-rule:nonzero;fill:rgb(8.104575%,0%,16.666667%);fill-opacity:1;" d="M 303.109375 192.5 L 329.089844 207.5 L 329.089844 177.5 "/>
<path style=" stroke:none;fill-rule:nonzero;fill:rgb(72.156863%,0%,100%);fill-opacity:1;" d="M 30.3125 245 L 56.292969 230 L 30.3125 215 "/>
<path style=" stroke:none;fill-rule:nonzero;fill:rgb(36.078431%,0%,50%);fill-opacity:1;" d="M 30.3125 245 L 30.3125 215 L 4.332031 230 "/>
<path style=" stroke:none;fill-rule:nonzero;fill:rgb(24.052288%,0%,33.333333%);fill-opacity:1;" d="M 30.3125 245 L 4.332031 230 L 4.332031 260 "/>
<path style=" stroke:none;fill-rule:nonzero;fill:rgb(18.039216%,0%,25%);fill-opacity:1;" d="M 30.3125 245 L 4.332031 260 L 30.3125 275 "/>
<path style=" stroke:none;fill-rule:nonzero;fill:rgb(14.431373%,0%,20%);fill-opacity:1;" d="M 30.3125 245 L 30.3125 275 L 56.292969 260 "/>
<path style=" stroke:none;fill-rule:nonzero;fill:rgb(12.026144%,0%,16.666667%);fill-opacity:1;" d="M 30.3125 245 L 56.292969 260 L 56.292969 230 "/>
<path style=" stroke:none;fill-rule:nonzero;fill:rgb(96.078431%,0%,100%);fill-opacity:1;" d="M 90.933594 245 L 116.914063 230 L 90.933594 215 "/>
<path style=" stroke:none;fill-rule:nonzero;fill:rgb(48.039216%,0%,50%);fill-opacity:1;" d="M 90.933594 245 L 90.933594 215 L 64.953125 230 "/>
<path style=" stroke:none;fill-rule:nonzero;fill:rgb(32.026144%,0%,33.333333%);fill-opacity:1;" d="M 90.933594 245 L 64.953125 230 L 64.953125 260 "/>
<path style=" stroke:none;fill-rule:nonzero;fill:rgb(24.019608%,0%,25%);fill-opacity:1;" d="M 90.933594 245 L 64.953125 260 L 90.933594 275 "/>
<path style=" stroke:none;fill-rule:nonzero;fill:rgb(19.215686%,0%,20%);fill-opacity:1;" d="M 90.933594 245 L 90.933594 275 L 116.914063 260 "/>
<path style=" stroke:none;fill-rule:nonzero;fill:rgb(16.013072%,0%,16.666667%);fill-opacity:1;" d="M 90.933594 245 L 116.914063 260 L 116.914063 230 "/>
<path style=" stroke:none;fill-rule:nonzero;fill:rgb(100%,0%,80%);fill-opacity:1;" d="M 151.554688 245 L 177.535156 230 L 151.554688 215 "/>
<path style=" stroke:none;fill-rule:nonzero;fill:rgb(50%,0%,40%);fill-opacity:1;" d="M 151.554688 245 L 151.554688 215 L 125.574219 230 "/>
<path style=" stroke:none;fill-rule:nonzero;fill:rgb(33.333333%,0%,26.666667%);fill-opacity:1;" d="M 151.554688 245 L 125.574219 230 L 125.574219 260 "/>
<path style=" stroke:none;fill-rule:nonzero;fill:rgb(25%,0%,20%);fill-opacity:1;" d="M 151.554688 245 L 125.574219 260 L 151.554688 275 "/>
<path style=" stroke:none;fill-rule:nonzero;fill:rgb(20%,0%,16%);fill-opacity:1;" d="M 151.554688 245 L 151.554688 275 L 177.535156 260 "/>
<path style=" stroke:none;fill-rule:nonzero;fill:rgb(16.666667%,0%,13.333333%);fill-opacity:1;" d="M 151.554688 245 L 177.535156 260 L 177.535156 230 "/>
<path style=" stroke:none;fill-rule:nonzero;fill:rgb(100%,0%,56.470588%);fill-opacity:1;" d="M 212.175781 245 L 238.15625 230 L 212.175781 215 "/>
<path style=" stroke:none;fill-rule:nonzero;fill:rgb(50%,0%,28.235294%);fill-opacity:1;" d="M 212.175781 245 L 212.175781 215 L 186.195313 230 "/>
<path style=" stroke:none;fill-rule:nonzero;fill:rgb(33.333333%,0%,18.823529%);fill-opacity:1;" d="M 212.175781 245 L 186.195313 230 L 186.195313 260 "/>
<path style=" stroke:none;fill-rule:nonzero;fill:rgb(25%,0%,14.117647%);fill-opacity:1;" d="M 212.175781 245 L 186.195313 260 L 212.175781 275 "/>
<path style=" stroke:none;fill-rule:nonzero;fill:rgb(20%,0%,11.294118%);fill-opacity:1;" d="M 212.175781 245 L 212.175781 275 L 238.15625 260 "/>
<path style=" stroke:none;fill-rule:nonzero;fill:rgb(16.666667%,0%,9.411765%);fill-opacity:1;" d="M 212.175781 245 L 238.15625 260 L 238.15625 230 "/>
<path style=" stroke:none;fill-rule:nonzero;fill:rgb(100%,0%,32.941176%);fill-opacity:1;" d="M 272.796875 245 L 298.777344 230 L 272.796875 215 "/>
<path style=" stroke:none;fill-rule:nonzero;fill:rgb(50%,0%,16.470588%);fill-opacity:1;" d="M 272.796875 245 L 272.796875 215 L 246.816406 230 "/>
<path style=" stroke:none;fill-rule:nonzero;fill:rgb(33.333333%,0%,10.980392%);fill-opacity:1;" d="M 272.796875 245 L 246.816406 230 L 246.816406 260 "/>
<path style=" stroke:none;fill-rule:nonzero;fill:rgb(25%,0%,8.235294%);fill-opacity:1;" d="M 272.796875 245 L 246.816406 260 L 272.796875 275 "/>
<path style=" stroke:none;fill-rule:nonzero;fill:rgb(20%,0%,6.588235%);fill-opacity:1;" d="M 272.796875 245 L 272.796875 275 L 298.777344 260 "/>
<path style=" stroke:none;fill-rule:nonzero;fill:rgb(16.666667%,0%,5.490196%);fill-opacity:1;" d="M 272.796875 245 L 298.777344 260 L 298.777344 230 "/>
</g>
</svg>
