<?xml version="1.0" encoding="UTF-8"?>
<svg xmlns="http://www.w3.org/2000/svg" xmlns:xlink="http://www.w3.org/1999/xlink" width="333.41978pt" height="280pt" viewBox="0 0 333.41978 280" version="1.1">
<g id="surface3142">
<path style=" stroke:none;fill-rule:nonzero;fill:rgb(100%,0%,0%);fill-opacity:1;" d="M 60.621094 35 L 86.601563 20 L 60.621094 5 "/>
<path style=" stroke:none;fill-rule:nonzero;fill:rgb(50%,0%,0%);fill-opacity:1;" d="M 60.621094 35 L 60.621094 5 L 34.640625 20 "/>
<path style=" stroke:none;fill-rule:nonzero;fill:rgb(33.333333%,0%,0%);fill-opacity:1;" d="M 60.621094 35 L 34.640625 20 L 34.640625 50 "/>
<path style=" stroke:none;fill-rule:nonzero;fill:rgb(25%,0%,0%);fill-opacity:1;" d="M 60.621094 35 L 34.640625 50 L 60.621094 65 "/>
<path style=" stroke:none;fill-rule:nonzero;fill:rgb(20%,0%,0%);fill-opacity:1;" d="M 60.621094 35 L 60.621094 65 L 86.601563 50 "/>
<path style=" stroke:none;fill-rule:nonzero;fill:rgb(16.666667%,0%,0%);fill-opacity:1;" d="M 60.621094 35 L 86.601563 50 L 86.601563 20 "/>
<path style=" stroke:none;fill-rule:nonzero;fill:rgb(100%,23.529412%,0%);fill-opacity:1;" d="M 121.242188 35 L 147.222656 20 L 121.242188 5 "/>
<path style=" stroke:none;fill-rule:nonzero;fill:rgb(50%,11.764706%,0%);fill-opacity:1;" d="M 121.242188 35 L 121.242188 5 L 95.261719 20 "/>
<path style=" stroke:none;fill-rule:nonzero;fill:rgb(33.333333%,7.843137%,0%);fill-opacity:1;" d="M 121.242188 35 L 95.261719 20 L 95.261719 50 "/>
<path style=" stroke:none;fill-rule:nonzero;fill:rgb(25%,5.882353%,0%);fill-opacity:1;" d="M 121.242188 35 L 95.261719 50 L 121.242188 65 "/>
<path style=" stroke:none;fill-rule:nonzero;fill:rgb(20%,4.705882%,0%);fill-opacity:1;" d="M 121.242188 35 L 121.242188 65 L 147.222656 50 "/>
<path style=" stroke:none;fill-rule:nonzero;fill:rgb(16.666667%,3.921569%,0%);fill-opacity:1;" d="M 121.242188 35 L 147.222656 50 L 147.222656 20 "/>
<path style=" stroke:none;fill-rule:nonzero;fill:rgb(100%,47.058824%,0%);fill-opacity:1;" d="M 181.867188 35 L 207.847656 20 L 181.867188 5 "/>
<path style=" stroke:none;fill-rule:nonzero;fill:rgb(50%,23.529412%,0%);fill-opacity:1;" d="M 181.867188 35 L 181.867188 5 L 155.882813 20 "/>
<path style=" stroke:none;fill-rule:nonzero;fill:rgb(33.333333%,15.686275%,0%);fill-opacity:1;" d="M 181.867188 35 L 155.882813 20 L 155.882813 50 "/>
<path style=" stroke:none;fill-rule:nonzero;fill:rgb(25%,11.764706%,0%);fill-opacity:1;" d="M 181.867188 35 L 155.882813 50 L 181.867188 65 "/>
<path style=" stroke:none;fill-rule:nonzero;fill:rgb(20%,9.411765%,0%);fill-opacity:1;" d="M 181.867188 35 L 181.867188 65 L 207.847656 50 "/>
<path style=" stroke:none;fill-rule:nonzero;fill:rgb(16.666667%,7.843137%,0%);fill-opacity:1;" d="M 181.867188 35 L 207.847656 50 L 207.847656 20 "/>
<path style=" stroke:none;fill-rule:nonzero;fill:rgb(100%,70.588235%,0%);fill-opacity:1;" d="M 242.488281 35 L 268.46875 20 L 242.488281 5 "/>
<path style=" stroke:none;fill-rule:nonzero;fill:rgb(50%,35.294118%,0%);fill-opacity:1;" d="M 242.488281 35 L 242.488281 5 L 216.507813 20 "/>
<path style=" stroke:none;fill-rule:nonzero;fill:rgb(33.333333%,23.529412%,0%);fill-opacity:1;" d="M 242.488281 35 L 216.507813 20 L 216.507813 50 "/>
<path style=" stroke:none;fill-rule:nonzero;fill:rgb(25%,17.647059%,0%);fill-opacity:1;" d="M 242.488281 35 L 216.507813 50 L 242.488281 65 "/>
<path style=" stroke:none;fill-rule:nonzero;fill:rgb(20%,14.117647%,0%);fill-opacity:1;" d="M 242.488281 35 L 242.488281 65 L 268.46875 50 "/>
<path style=" stroke:none;fill-rule:nonzero;fill:rgb(16.666667%,11.764706%,0%);fill-opacity:1;" d="M 242.488281 35 L 268.46875 50 L 268.46875 20 "/>
<path style=" stroke:none;fill-rule:nonzero;fill:rgb(99.607843%,94.117647%,0%);fill-opacity:1;" d="M 303.109375 35 L 329.089844 20 L 303.109375 5 "/>
<path style=" stroke:none;fill-rule:nonzero;fill:rgb(49.803922%,47.058824%,0%);fill-opacity:1;" d="M 303.109375 35 L 303.109375 5 L 277.128906 20 "/>
<path style=" stroke:none;fill-rule:nonzero;fill:rgb(33.202614%,31.372549%,0%);fill-opacity:1;" d="M 303.109375 35 L 277.128906 20 L 277.128906 50 "/>
<path style=" stroke:none;fill-rule:nonzero;fill:rgb(24.901961%,23.529412%,0%);fill-opacity:1;" d="M 303.109375 35 L 277.128906 50 L 303.109375 65 "/>
<path style=" stroke:none;fill-rule:nonzero;fill:rgb(19.921569%,18.823529%,0%);fill-opacity:1;" d="M 303.109375 35 L 303.109375 65 L 329.089844 50 "/>
<path style=" stroke:none;fill-rule:nonzero;fill:rgb(16.601307%,15.686275%,0%);fill-opacity:1;" d="M 303.109375 35 L 329.089844 50 L 329.089844 20 "/>
<path style=" stroke:none;fill-rule:nonzero;fill:rgb(81.568627%,100%,0%);fill-opacity:1;" d="M 30.3125 87.5 L 56.292969 72.5 L 30.3125 57.5 "/>
<path style=" stroke:none;fill-rule:nonzero;fill:rgb(40.784314%,50%,0%);fill-opacity:1;" d="M 30.3125 87.5 L 30.3125 57.5 L 4.332031 72.5 "/>
<path style=" stroke:none;fill-rule:nonzero;fill:rgb(27.189542%,33.333333%,0%);fill-opacity:1;" d="M 30.3125 87.5 L 4.332031 72.5 L 4.332031 102.5 "/>
<path style=" stroke:none;fill-rule:nonzero;fill:rgb(20.392157%,25%,0%);fill-opacity:1;" d="M 30.3125 87.5 L 4.332031 102.5 L 30.3125 117.5 "/>
<path style=" stroke:none;fill-rule:nonzero;fill:rgb(16.313725%,20%,0%);fill-opacity:1;" d="M 30.3125 87.5 L 30.3125 117.5 L 56.292969 102.5 "/>
<path style=" stroke:none;fill-rule:nonzero;fill:rgb(13.594771%,16.666667%,0%);fill-opacity:1;" d="M 30.3125 87.5 L 56.292969 102.5 L 56.292969 72.5 "/>
<path style=" stroke:none;fill-rule:nonzero;fill:rgb(58.039216%,100%,0%);fill-opacity:1;" d="M 90.933594 87.5 L 116.914063 72.5 L 90.933594 57.5 "/>
<path style=" stroke:none;fill-rule:nonzero;fill:rgb(29.019608%,50%,0%);fill-opacity:1;" d="M 90.933594 87.5 L 90.933594 57.5 L 64.953125 72.5 "/>
<path style=" stroke:none;fill-rule:nonzero;fill:rgb(19.346405%,33.333333%,0%);fill-opacity:1;" d="M 90.933594 87.5 L 64.953125 72.5 L 64.953125 102.5 "/>
<path style=" stroke:none;fill-rule:nonzero;fill:rgb(14.509804%,25%,0%);fill-opacity:1;" d="M 90.933594 87.5 L 64.953125 102.5 L 90.933594 117.5 "/>
<path style=" stroke:none;fill-rule:nonzero;fill:rgb(11.607843%,20%,0%);fill-opacity:1;" d="M 90.933594 87.5 L 90.933594 117.5 L 116.914063 102.5 "/>
<path style=" stroke:none;fill-rule:nonzero;fill:rgb(9.673203%,16.666667%,0%);fill-opacity:1;" d="M 90.933594 87.5 L 116.914063 102.5 L 116.914063 72.5 "/>
<path style=" stroke:none;fill-rule:nonzero;fill:rgb(34.509804%,100%,0%);fill-opacity:1;" d="M 151.554688 87.5 L 177.535156 72.5 L 151.554688 57.5 "/>
<path style=" stroke:none;fill-rule:nonzero;fill:rgb(17.254902%,50%,0%);fill-opacity:1;" d="M 151.554688 87.5 L 151.554688 57.5 L 125.574219 72.5 "/>
<path style=" stroke:none;fill-rule:nonzero;fill:rgb(11.503268%,33.333333%,0%);fill-opacity:1;" d="M 151.554688 87.5 L 125.574219 72.5 L 125.574219 102.5 "/>
<path style=" stroke:none;fill-rule:nonzero;fill:rgb(8.627451%,25%,0%);fill-opacity:1;" d="M 151.554688 87.5 L 125.574219 102.5 L 151.554688 117.5 "/>
<path style=" stroke:none;fill-rule:nonzero;fill:rgb(6.901961%,20%,0%);fill-opacity:1;" d="M 151.554688 87.5 L 151.554688 117.5 L 177.535156 102.5 "/>
<path style=" stroke:none;fill-rule:nonzero;fill:rgb(5.751634%,16.666667%,0%);fill-opacity:1;" d="M 151.554688 87.5 L 177.535156 102.5 L 177.535156 72.5 "/>
<path style=" stroke:none;fill-rule:nonzero;fill:rgb(10.980392%,100%,0%);fill-opacity:1;" d="M 212.175781 87.5 L 238.15625 72.5 L 212.175781 57.5 "/>
<path style=" stroke:none;fill-rule:nonzero;fill:rgb(5.490196%,50%,0%);fill-opacity:1;" d="M 212.175781 87.5 L 212.175781 57.5 L 186.195313 72.5 "/>
<path style=" stroke:none;fill-rule:nonzero;fill:rgb(3.660131%,33.333333%,0%);fill-opacity:1;" d="M 212.175781 87.5 L 186.195313 72.5 L 186.195313 102.5 "/>
<path style=" stroke:none;fill-rule:nonzero;fill:rgb(2.745098%,25%,0%);fill-opacity:1;" d="M 212.175781 87.5 L 186.195313 102.5 L 212.175781 117.5 "/>
<path style=" stroke:none;fill-rule:nonzero;fill:rgb(2.196078%,20%,0%);fill-opacity:1;" d="M 212.175781 87.5 L 212.175781 117.5 L 238.15625 102.5 "/>
<path style=" stroke:none;fill-rule:nonzero;fill:rgb(1.830065%,16.666667%,0%);fill-opacity:1;" d="M 212.175781 87.5 L 238.15625 102.5 L 238.15625 72.5 "/>
<path style=" stroke:none;fill-rule:nonzero;fill:rgb(0%,100%,12.54902%);fill-opacity:1;" d="M 272.796875 87.5 L 298.777344 72.5 L 272.796875 57.5 "/>
<path style=" stroke:none;fill-rule:nonzero;fill:rgb(0%,50%,6.27451%);fill-opacity:1;" d="M 272.796875 87.5 L 272.796875 57.5 L 246.816406 72.5 "/>
<path style=" stroke:none;fill-rule:nonzero;fill:rgb(0%,33.333333%,4.183007%);fill-opacity:1;" d="M 272.796875 87.5 L 246.816406 72.5 L 246.816406 102.5 "/>
<path style=" stroke:none;fill-rule:nonzero;fill:rgb(0%,25%,3.137255%);fill-opacity:1;" d="M 272.796875 87.5 L 246.816406 102.5 L 272.796875 117.5 "/>
<path style=" stroke:none;fill-rule:nonzero;fill:rgb(0%,20%,2.509804%);fill-opacity:1;" d="M 272.796875 87.5 L 272.796875 117.5 L 298.777344 102.5 "/>
<path style=" stroke:none;fill-rule:nonzero;fill:rgb(0%,16.666667%,2.091503%);fill-opacity:1;" d="M 272.796875 87.5 L 298.777344 102.5 L 298.777344 72.5 "/>
<path style=" stroke:none;fill-rule:nonzero;fill:rgb(0%,100%,36.078431%);fill-opacity:1;" d="M 60.621094 140 L 86.601563 125 L 60.621094 110 "/>
<path style=" stroke:none;fill-rule:nonzero;fill:rgb(0%,50%,18.039216%);fill-opacity:1;" d="M 60.621094 140 L 60.621094 110 L 34.640625 125 "/>
<path style=" stroke:none;fill-rule:nonzero;fill:rgb(0%,33.333333%,12.026144%);fill-opacity:1;" d="M 60.621094 140 L 34.640625 125 L 34.640625 155 "/>
<path style=" stroke:none;fill-rule:nonzero;fill:rgb(0%,25%,9.019608%);fill-opacity:1;" d="M 60.621094 140 L 34.640625 155 L 60.621094 170 "/>
<path style=" stroke:none;fill-rule:nonzero;fill:rgb(0%,20%,7.215686%);fill-opacity:1;" d="M 60.621094 140 L 60.621094 170 L 86.601563 155 "/>
<path style=" stroke:none;fill-rule:nonzero;fill:rgb(0%,16.666667%,6.013072%);fill-opacity:1;" d="M 60.621094 140 L 86.601563 155 L 86.601563 125 "/>
<path style=" stroke:none;fill-rule:nonzero;fill:rgb(0%,100%,59.607843%);fill-opacity:1;" d="M 121.242188 140 L 147.222656 125 L 121.242188 110 "/>
<path style=" stroke:none;fill-rule:nonzero;fill:rgb(0%,50%,29.803922%);fill-opacity:1;" d="M 121.242188 140 L 121.242188 110 L 95.261719 125 "/>
<path style=" stroke:none;fill-rule:nonzero;fill:rgb(0%,33.333333%,19.869281%);fill-opacity:1;" d="M 121.242188 140 L 95.261719 125 L 95.261719 155 "/>
<path style=" stroke:none;fill-rule:nonzero;fill:rgb(0%,25%,14.901961%);fill-opacity:1;" d="M 121.242188 140 L 95.261719 155 L 121.242188 170 "/>
<path style=" stroke:none;fill-rule:nonzero;fill:rgb(0%,20%,11.921569%);fill-opacity:1;" d="M 121.242188 140 L 121.242188 170 L 147.222656 155 "/>
<path style=" stroke:none;fill-rule:nonzero;fill:rgb(0%,16.666667%,9.934641%);fill-opacity:1;" d="M 121.242188 140 L 147.222656 155 L 147.222656 125 "/>
<path style=" stroke:none;fill-rule:nonzero;fill:rgb(0%,100%,83.137255%);fill-opacity:1;" d="M 181.867188 140 L 207.847656 125 L 181.867188 110 "/>
<path style=" stroke:none;fill-rule:nonzero;fill:rgb(0%,50%,41.568627%);fill-opacity:1;" d="M 181.867188 140 L 181.867188 110 L 155.882813 125 "/>
<path style=" stroke:none;fill-rule:nonzero;fill:rgb(0%,33.333333%,27.712418%);fill-opacity:1;" d="M 181.867188 140 L 155.882813 125 L 155.882813 155 "/>
<path style=" stroke:none;fill-rule:nonzero;fill:rgb(0%,25%,20.784314%);fill-opacity:1;" d="M 181.867188 140 L 155.882813 155 L 181.867188 170 "/>
<path style=" stroke:none;fill-rule:nonzero;fill:rgb(0%,20%,16.627451%);fill-opacity:1;" d="M 181.867188 140 L 181.867188 170 L 207.847656 155 "/>
<path style=" stroke:none;fill-rule:nonzero;fill:rgb(0%,16.666667%,13.856209%);fill-opacity:1;" d="M 181.867188 140 L 207.847656 155 L 207.847656 125 "/>
<path style=" stroke:none;fill-rule:nonzero;fill:rgb(0%,92.54902%,100%);fill-opacity:1;" d="M 242.488281 140 L 268.46875 125 L 242.488281 110 "/>
<path style=" stroke:none;fill-rule:nonzero;fill:rgb(0%,46.27451%,50%);fill-opacity:1;" d="M 242.488281 140 L 242.488281 110 L 216.507813 125 "/>
<path style=" stroke:none;fill-rule:nonzero;fill:rgb(0%,30.849673%,33.333333%);fill-opacity:1;" d="M 242.488281 140 L 216.507813 125 L 216.507813 155 "/>
<path style=" stroke:none;fill-rule:nonzero;fill:rgb(0%,23.137255%,25%);fill-opacity:1;" d="M 242.488281 140 L 216.507813 155 L 242.488281 170 "/>
<path style=" stroke:none;fill-rule:nonzero;fill:rgb(0%,18.509804%,20%);fill-opacity:1;" d="M 242.488281 140 L 242.488281 170 L 268.46875 155 "/>
<path style=" stroke:none;fill-rule:nonzero;fill:rgb(0%,15.424837%,16.666667%);fill-opacity:1;" d="M 242.488281 140 L 268.46875 155 L 268.46875 125 "/>
<path style=" stroke:none;fill-rule:nonzero;fill:rgb(0%,69.019608%,100%);fill-opacity:1;" d="M 303.109375 140 L 329.089844 125 L 303.109375 110 "/>
<path style=" stroke:none;fill-rule:nonzero;fill:rgb(0%,34.509804%,50%);fill-opacity:1;" d="M 303.109375 140 L 303.109375 110 L 277.128906 125 "/>
<path style=" stroke:none;fill-rule:nonzero;fill:rgb(0%,23.006536%,33.333333%);fill-opacity:1;" d="M 303.109375 140 L 277.128906 125 L 277.128906 155 "/>
<path style=" stroke:none;fill-rule:nonzero;fill:rgb(0%,17.254902%,25%);fill-opacity:1;" d="M 303.109375 140 L 277.128906 155 L 303.109375 170 "/>
<path style=" stroke:none;fill-rule:nonzero;fill:rgb(0%,13.803922%,20%);fill-opacity:1;" d="M 303.109375 140 L 303.109375 170 L 329.089844 155 "/>
<path style=" stroke:none;fill-rule:nonzero;fill:rgb(0%,11.503268%,16.666667%);fill-opacity:1;" d="M 303.109375 140 L 329.089844 155 L 329.089844 125 "/>
<path style=" stroke:none;fill-rule:nonzero;fill:rgb(0%,45.490196%,100%);fill-opacity:1;" d="M 30.3125 192.5 L 56.292969 177.5 L 30.3125 162.5 "/>
<path style=" stroke:none;fill-rule:nonzero;fill:rgb(0%,22.745098%,50%);fill-opacity:1;" d="M 30.3125 192.5 L 30.3125 162.5 L 4.332031 177.5 "/>
<path style=" stroke:none;fill-rule:nonzero;fill:rgb(0%,15.163399%,33.333333%);fill-opacity:1;" d="M 30.3125 192.5 L 4.332031 177.5 L 4.332031 207.5 "/>
<path style=" stroke:none;fill-rule:nonzero;fill:rgb(0%,11.372549%,25%);fill-opacity:1;" d="M 30.3125 192.5 L 4.332031 207.5 L 30.3125 222.5 "/>
<path style=" stroke:none;fill-rule:nonzero;fill:rgb(0%,9.098039%,20%);fill-opacity:1;" d="M 30.3125 192.5 L 30.3125 222.5 L 56.292969 207.5 "/>
<path style=" stroke:none;fill-rule:nonzero;fill:rgb(0%,7.581699%,16.666667%);fill-opacity:1;" d="M 30.3125 192.5 L 56.292969 207.5 L 56.292969 177.5 "/>
<path style=" stroke:none;fill-rule:nonzero;fill:rgb(0%,21.960784%,100%);fill-opacity:1;" d="M 90.933594 192.5 L 116.914063 177.5 L 90.933594 162.5 "/>
<path style=" stroke:none;fill-rule:nonzero;fill:rgb(0%,10.980392%,50%);fill-opacity:1;" d="M 90.933594 192.5 L 90.933594 162.5 L 64.953125 177.5 "/>
<path style=" stroke:none;fill-rule:nonzero;fill:rgb(0%,7.320261%,33.333333%);fill-opacity:1;" d="M 90.933594 192.5 L 64.953125 177.5 L 64.953125 207.5 "/>
<path style=" stroke:none;fill-rule:nonzero;fill:rgb(0%,5.490196%,25%);fill-opacity:1;" d="M 90.933594 192.5 L 64.953125 207.5 L 90.933594 222.5 "/>
<path style=" stroke:none;fill-rule:nonzero;fill:rgb(0%,4.392157%,20%);fill-opacity:1;" d="M 90.933594 192.5 L 90.933594 222.5 L 116.914063 207.5 "/>
<path style=" stroke:none;fill-rule:nonzero;fill:rgb(0%,3.660131%,16.666667%);fill-opacity:1;" d="M 90.933594 192.5 L 116.914063 207.5 L 116.914063 177.5 "/>
<path style=" stroke:none;fill-rule:nonzero;fill:rgb(2.352941%,0.784314%,100%);fill-opacity:1;" d="M 151.554688 192.5 L 177.535156 177.5 L 151.554688 162.5 "/>
<path style=" stroke:none;fill-rule:nonzero;fill:rgb(1.176471%,0.392157%,50%);fill-opacity:1;" d="M 151.554688 192.5 L 151.554688 162.5 L 125.574219 177.5 "/>
<path style=" stroke:none;fill-rule:nonzero;fill:rgb(0.784314%,0.261438%,33.333333%);fill-opacity:1;" d="M 151.554688 192.5 L 125.574219 177.5 L 125.574219 207.5 "/>
<path style=" stroke:none;fill-rule:nonzero;fill:rgb(0.588235%,0.196078%,25%);fill-opacity:1;" d="M 151.554688 192.5 L 125.574219 207.5 L 151.554688 222.5 "/>
<path style=" stroke:none;fill-rule:nonzero;fill:rgb(0.470588%,0.156863%,20%);fill-opacity:1;" d="M 151.554688 192.5 L 151.554688 222.5 L 177.535156 207.5 "/>
<path style=" stroke:none;fill-rule:nonzero;fill:rgb(0.392157%,0.130719%,16.666667%);fill-opacity:1;" d="M 151.554688 192.5 L 177.535156 207.5 L 177.535156 177.5 "/>
<path style=" stroke:none;fill-rule:nonzero;fill:rgb(25.098039%,0%,100%);fill-opacity:1;" d="M 212.175781 192.5 L 238.15625 177.5 L 212.175781 162.5 "/>
<path style=" stroke:none;fill-rule:nonzero;fill:rgb(12.54902%,0%,50%);fill-opacity:1;" d="M 212.175781 192.5 L 212.175781 162.5 L 186.195313 177.5 "/>
<path style=" stroke:none;fill-rule:nonzero;fill:rgb(8.366013%,0%,33.333333%);fill-opacity:1;" d="M 212.175781 192.5 L 186.195313 177.5 L 186.195313 207.5 "/>
<path style=" stroke:none;fill-rule:nonzero;fill:rgb(6.27451%,0%,25%);fill-opacity:1;" d="M 212.175781 192.5 L 186.195313 207.5 L 212.175781 222.5 "/>
<path style=" stroke:none;fill-rule:nonzero;fill:rgb(5.019608%,0%,20%);fill-opacity:1;" d="M 212.175781 192.5 L 212.175781 222.5 L 238.15625 207.5 "/>
<path style=" stroke:none;fill-rule:nonzero;fill:rgb(4.183007%,0%,16.666667%);fill-opacity:1;" d="M 212.175781 192.5 L 238.15625 207.5 L 238.15625 177.5 "/>
<path style=" stroke:none;fill-rule:nonzero;fill:rgb(48.627451%,0%,100%);fill-opacity:1;" d="M 272.796875 192.5 L 298.777344 177.5 L 272.796875 162.5 "/>
<path style=" stroke:none;fill-rule:nonzero;fill:rgb(24.313725%,0%,50%);fill-opacity:1;" d="M 272.796875 192.5 L 272.796875 162.5 L 246.816406 177.5 "/>
<path style=" stroke:none;fill-rule:nonzero;fill:rgb(16.20915%,0%,33.333333%);fill-opacity:1;" d="M 272.796875 192.5 L 246.816406 177.5 L 246.816406 207.5 "/>
<path style=" stroke:none;fill-rule:nonzero;fill:rgb(12.156863%,0%,25%);fill-opacity:1;" d="M 272.796875 192.5 L 246.816406 207.5 L 272.796875 222.5 "/>
<path style=" stroke:none;fill-rule:nonzero;fill:rgb(9.72549%,0%,20%);fill-opacity:1;" d="M 272.796875 192.5 L 272.796875 222.5 L 298.777344 207.5 "/>
<path style=" stroke:none;fill-rule:nonzero;fill:rgb(8.104575%,0%,16.666667%);fill-opacity:1;" d="M 272.796875 192.5 L 298.777344 207.5 L 298.777344 177.5 "/>
<path style=" stroke:none;fill-rule:nonzero;fill:rgb(72.156863%,0%,100%);fill-opacity:1;" d="M 60.621094 245 L 86.601563 230 L 60.621094 215 "/>
<path style=" stroke:none;fill-rule:nonzero;fill:rgb(36.078431%,0%,50%);fill-opacity:1;" d="M 60.621094 245 L 60.621094 215 L 34.640625 230 "/>
<path style=" stroke:none;fill-rule:nonzero;fill:rgb(24.052288%,0%,33.333333%);fill-opacity:1;" d="M 60.621094 245 L 34.640625 230 L 34.640625 260 "/>
<path style=" stroke:none;fill-rule:nonzero;fill:rgb(18.039216%,0%,25%);fill-opacity:1;" d="M 60.621094 245 L 34.640625 260 L 60.621094 275 "/>
<path style=" stroke:none;fill-rule:nonzero;fill:rgb(14.431373%,0%,20%);fill-opacity:1;" d="M 60.621094 245 L 60.621094 275 L 86.601563 260 "/>
<path style=" stroke:none;fill-rule:nonzero;fill:rgb(12.026144%,0%,16.666667%);fill-opacity:1;" d="M 60.621094 245 L 86.601563 260 L 86.601563 230 "/>
<path style=" stroke:none;fill-rule:nonzero;fill:rgb(96.078431%,0%,100%);fill-opacity:1;" d="M 121.242188 245 L 147.222656 230 L 121.242188 215 "/>
<path style=" stroke:none;fill-rule:nonzero;fill:rgb(48.039216%,0%,50%);fill-opacity:1;" d="M 121.242188 245 L 121.242188 215 L 95.261719 230 "/>
<path style=" stroke:none;fill-rule:nonzero;fill:rgb(32.026144%,0%,33.333333%);fill-opacity:1;" d="M 121.242188 245 L 95.261719 230 L 95.261719 260 "/>
<path style=" stroke:none;fill-rule:nonzero;fill:rgb(24.019608%,0%,25%);fill-opacity:1;" d="M 121.242188 245 L 95.261719 260 L 121.242188 275 "/>
<path style=" stroke:none;fill-rule:nonzero;fill:rgb(19.215686%,0%,20%);fill-opacity:1;" d="M 121.242188 245 L 121.242188 275 L 147.222656 260 "/>
<path style=" stroke:none;fill-rule:nonzero;fill:rgb(16.013072%,0%,16.666667%);fill-opacity:1;" d="M 121.242188 245 L 147.222656 260 L 147.222656 230 "/>
<path style=" stroke:none;fill-rule:nonzero;fill:rgb(100%,0%,80%);fill-opacity:1;" d="M 181.867188 245 L 207.847656 230 L 181.867188 215 "/>
<path style=" stroke:none;fill-rule:nonzero;fill:rgb(50%,0%,40%);fill-opacity:1;" d="M 181.867188 245 L 181.867188 215 L 155.882813 230 "/>
<path style=" stroke:none;fill-rule:nonzero;fill:rgb(33.333333%,0%,26.666667%);fill-opacity:1;" d="M 181.867188 245 L 155.882813 230 L 155.882813 260 "/>
<path style=" stroke:none;fill-rule:nonzero;fill:rgb(25%,0%,20%);fill-opacity:1;" d="M 181.867188 245 L 155.882813 260 L 181.867188 275 "/>
<path style=" stroke:none;fill-rule:nonzero;fill:rgb(20%,0%,16%);fill-opacity:1;" d="M 181.867188 245 L 181.867188 275 L 207.847656 260 "/>
<path style=" stroke:none;fill-rule:nonzero;fill:rgb(16.666667%,0%,13.333333%);fill-opacity:1;" d="M 181.867188 245 L 207.847656 260 L 207.847656 230 "/>
<path style=" stroke:none;fill-rule:nonzero;fill:rgb(100%,0%,56.470588%);fill-opacity:1;" d="M 242.488281 245 L 268.46875 230 L 242.488281 215 "/>
<path style=" stroke:none;fill-rule:nonzero;fill:rgb(50%,0%,28.235294%);fill-opacity:1;" d="M 242.488281 245 L 242.488281 215 L 216.507813 230 "/>
<path style=" stroke:none;fill-rule:nonzero;fill:rgb(33.333333%,0%,18.823529%);fill-opacity:1;" d="M 242.488281 245 L 216.507813 230 L 216.507813 260 "/>
<path style=" stroke:none;fill-rule:nonzero;fill:rgb(25%,0%,14.117647%);fill-opacity:1;" d="M 242.488281 245 L 216.507813 260 L 242.488281 275 "/>
<path style=" stroke:none;fill-rule:nonzero;fill:rgb(20%,0%,11.294118%);fill-opacity:1;" d="M 242.488281 245 L 242.488281 275 L 268.46875 260 "/>
<path style=" stroke:none;fill-rule:nonzero;fill:rgb(16.666667%,0%,9.411765%);fill-opacity:1;" d="M 242.488281 245 L 268.46875 260 L 268.46875 230 "/>
<path style=" stroke:none;fill-rule:nonzero;fill:rgb(100%,0%,32.941176%);fill-opacity:1;" d="M 303.109375 245 L 329.089844 230 L 303.109375 215 "/>
<path style=" stroke:none;fill-rule:nonzero;fill:rgb(50%,0%,16.470588%);fill-opacity:1;" d="M 303.109375 245 L 303.109375 215 L 277.128906 230 "/>
<path style=" stroke:none;fill-rule:nonzero;fill:rgb(33.333333%,0%,10.980392%);fill-opacity:1;" d="M 303.109375 245 L 277.128906 230 L 277.128906 260 "/>
<path style=" stroke:none;fill-rule:nonzero;fill:rgb(25%,0%,8.235294%);fill-opacity:1;" d="M 303.109375 245 L 277.128906 260 L 303.109375 275 "/>
<path style=" stroke:none;fill-rule:nonzero;fill:rgb(20%,0%,6.588235%);fill-opacity:1;" d="M 303.109375 245 L 303.109375 275 L 329.089844 260 "/>
<path style=" stroke:none;fill-rule:nonzero;fill:rgb(16.666667%,0%,5.490196%);fill-opacity:1;" d="M 303.109375 245 L 329.089844 260 L 329.089844 230 "/>
</g>
</svg>
